<?xml version="1.0" encoding="UTF-8" standalone="no"?>
<!DOCTYPE svg PUBLIC "-//W3C//DTD SVG 1.1//EN" "http://www.w3.org/Graphics/SVG/1.1/DTD/svg11.dtd">
<svg xmlns="http://www.w3.org/2000/svg" version="1.1" viewBox="0.00 0.00 1039.00 240.00">
<g stroke-width="2.00" fill="none" stroke-linecap="butt">
<path stroke="#FDFCFB" vector-effect="non-scaling-stroke" d="
  M 845.07 169.01
  Q 844.97 169.62 845.12 170.29"
/>
<path stroke="#FDFCFB" vector-effect="non-scaling-stroke" d="
  M 895.73 184.96
  Q 894.98 184.76 894.30 185.10"
/>
</g>
<path fill="#FDFCFB" d="
  M 871.02 21.43
  Q 872.95 22.18 873.49 23.81
  Q 873.86 24.94 875.38 32.25
  C 877.71 43.46 874.62 54.51 872.61 65.38
  Q 870.48 76.98 865.07 86.10
  C 857.92 98.17 850.00 110.40 837.93 115.41
  C 833.12 117.41 829.21 121.53 823.61 121.39
  A 2.52 2.40 -0.8 0 1 821.17 119.13
  C 820.87 114.01 827.05 108.67 831.50 106.72
  C 838.42 103.67 844.27 100.99 848.84 95.84
  Q 851.69 92.62 855.59 86.10
  Q 860.66 77.64 861.58 73.54
  C 862.47 69.58 864.31 61.18 866.00 54.60
  Q 867.19 49.93 867.73 45.09
  A 5.60 5.40 44.0 0 0 867.67 43.41
  Q 867.48 42.44 866.40 36.98
  C 865.52 32.46 866.08 24.84 870.08 21.57
  A 0.95 0.95 0.0 0 1 871.02 21.43
  Z"
/>
<path fill="#FDFCFB" d="
  M 945.23 47.58
  Q 946.37 48.83 946.02 50.81
  Q 944.49 59.33 944.60 75.77
  C 944.66 84.23 939.09 92.84 933.27 99.26
  C 924.94 108.45 915.14 118.75 904.98 126.97
  C 903.41 128.23 900.00 130.68 898.06 129.80
  A 3.25 2.87 -77.1 0 1 896.39 126.73
  C 896.54 124.44 897.56 122.71 899.13 121.08
  C 903.20 116.87 908.01 113.83 912.50 109.49
  Q 921.51 100.79 927.19 94.71
  C 930.48 91.19 931.97 88.63 932.31 83.62
  Q 932.55 80.27 933.82 68.51
  C 934.70 60.34 935.49 50.25 942.49 47.02
  A 2.36 2.35 -33.4 0 1 945.23 47.58
  Z"
/>
<path fill="#FDFCFB" d="
  M 261.62 181.59
  A 0.60 0.60 0.0 0 0 262.75 181.87
  Q 270.04 168.61 274.14 161.40
  Q 277.77 154.99 280.90 141.02
  Q 281.18 139.76 280.07 133.55
  C 279.12 128.24 280.31 125.27 283.68 121.39
  Q 285.34 119.48 287.19 120.43
  A 1.57 1.55 0.8 0 1 287.90 121.15
  C 291.25 127.95 291.86 134.78 290.54 142.36
  Q 289.95 145.74 286.69 155.66
  Q 283.63 164.97 281.79 168.64
  Q 280.00 172.22 278.88 176.68
  C 277.72 181.30 275.47 185.73 274.17 190.80
  C 272.22 198.39 267.64 206.20 258.43 204.28
  C 253.41 203.23 252.07 198.99 252.32 194.20
  Q 252.86 183.54 253.56 180.79
  Q 256.72 168.41 257.36 160.53
  Q 257.63 157.14 255.38 155.00
  C 253.40 153.12 247.71 153.45 245.54 153.78
  A 1.83 1.83 0.0 0 0 243.98 155.43
  L 243.52 160.46
  A 3.71 3.12 60.6 0 1 243.38 161.21
  Q 241.97 165.90 241.76 172.25
  Q 241.44 181.73 240.29 195.00
  C 239.87 199.78 240.87 204.07 237.65 208.42
  A 2.89 2.69 -60.2 0 1 234.39 209.43
  C 230.92 208.03 230.51 203.38 230.88 200.15
  Q 231.61 193.89 233.05 176.01
  Q 233.59 169.26 235.31 161.29
  C 235.79 159.02 235.86 156.47 235.97 154.83
  A 1.39 1.39 0.0 0 0 234.35 153.36
  L 222.35 155.43
  A 2.19 2.18 -84.1 0 0 220.69 156.79
  Q 215.26 170.67 205.93 182.19
  Q 198.88 190.88 188.82 201.04
  A 3.87 3.87 0.0 0 1 182.81 200.38
  L 182.71 200.22
  A 5.62 5.62 0.0 0 1 183.74 193.00
  Q 193.45 184.41 196.23 180.74
  Q 205.25 168.82 211.69 157.45
  A 0.68 0.68 0.0 0 0 210.98 156.44
  L 208.11 156.93
  A 2.48 2.47 73.8 0 1 205.40 155.43
  C 203.94 151.89 203.29 147.69 208.19 146.66
  Q 210.99 146.07 214.91 145.64
  A 0.87 0.86 -4.3 0 0 215.68 144.75
  L 215.68 144.72
  A 0.84 0.83 87.2 0 0 214.88 143.99
  L 205.79 143.69
  A 8.62 8.53 -48.9 0 0 204.14 143.81
  L 177.38 148.44
  A 3.16 3.15 -83.8 0 0 175.01 150.35
  Q 171.15 159.94 167.89 172.39
  C 165.34 182.14 163.19 189.27 161.46 198.18
  A 16.38 16.15 62.5 0 1 160.46 201.43
  Q 157.99 207.13 157.78 207.78
  C 157.01 210.22 155.22 211.77 153.01 212.23
  A 2.55 2.53 77.4 0 1 150.01 210.32
  C 149.11 206.51 151.19 199.90 152.22 196.19
  Q 153.60 191.28 158.08 173.93
  C 159.97 166.59 162.42 160.27 164.75 153.29
  A 1.04 1.03 -61.1 0 0 164.43 152.16
  C 162.20 150.34 154.93 152.07 152.92 152.60
  Q 149.33 153.55 130.70 155.06
  C 126.38 155.41 123.33 156.23 120.18 155.68
  A 1.49 1.48 -71.5 0 0 118.60 156.47
  C 117.59 158.47 116.10 161.25 115.45 163.69
  Q 113.71 170.26 110.80 177.12
  C 108.24 183.14 106.74 191.16 104.19 196.73
  Q 101.25 203.16 98.20 210.17
  C 96.81 213.38 96.22 217.08 95.35 219.81
  C 94.18 223.48 91.96 222.88 88.71 222.08
  Q 84.62 221.08 82.50 218.03
  Q 81.21 216.17 82.22 212.99
  Q 85.03 204.15 89.19 195.15
  Q 93.98 184.77 95.33 177.84
  A 17.35 17.10 63.4 0 1 96.60 173.92
  Q 98.94 168.86 99.93 165.11
  Q 101.18 160.41 103.40 155.54
  Q 103.48 155.35 108.81 142.55
  C 112.67 133.27 116.01 121.95 120.04 112.10
  C 122.18 106.89 121.78 99.31 129.18 98.44
  C 133.10 97.97 138.66 98.30 137.48 104.00
  Q 135.98 111.26 132.98 118.48
  C 129.57 126.66 128.31 133.12 125.08 141.10
  Q 124.78 141.84 124.78 142.73
  A 1.25 1.24 86.2 0 0 126.19 143.97
  C 130.24 143.41 133.78 142.39 137.55 142.11
  Q 138.96 142.00 146.59 141.13
  C 153.93 140.29 160.18 138.44 168.35 136.98
  A 3.57 3.54 7.9 0 0 170.90 135.07
  C 172.96 130.94 173.78 127.02 175.56 122.81
  C 178.21 116.57 180.05 111.11 183.76 104.02
  C 186.46 98.84 190.95 87.38 187.89 82.42
  A 1.42 1.42 0.0 0 0 185.73 82.11
  L 183.72 83.93
  A 1.44 1.40 -65.3 0 1 182.77 84.30
  Q 181.14 84.29 179.78 83.65
  A 1.11 1.10 11.8 0 1 179.14 82.68
  C 179.02 77.71 181.50 75.96 184.39 72.68
  A 4.49 4.46 26.0 0 1 188.61 71.24
  L 193.22 72.13
  A 3.03 3.02 -8.0 0 1 195.34 73.72
  C 198.74 80.30 197.69 90.78 195.56 97.61
  C 193.33 104.76 188.20 113.67 185.38 121.41
  Q 182.80 128.48 181.54 132.86
  A 0.99 0.98 12.6 0 0 182.33 134.10
  Q 182.96 134.21 184.26 134.00
  Q 193.63 132.47 203.20 131.14
  C 206.66 130.65 210.77 131.12 213.77 130.27
  C 215.32 129.83 216.82 130.69 217.91 131.45
  C 218.88 132.14 218.71 133.29 218.44 134.25
  A 0.98 0.96 -76.9 0 0 219.18 135.47
  Q 220.04 135.63 220.48 134.71
  Q 223.36 128.64 228.48 123.00
  C 230.76 120.49 233.71 118.68 236.07 116.40
  A 1.91 1.86 -74.5 0 1 236.86 115.94
  Q 239.43 115.16 240.70 117.61
  C 242.01 120.14 243.75 124.18 244.13 127.14
  C 244.58 130.61 246.40 136.81 245.66 142.01
  A 1.76 1.75 -85.9 0 0 247.39 144.02
  L 256.30 144.02
  A 2.56 2.49 -27.9 0 1 257.67 144.42
  Q 263.23 148.01 264.08 152.66
  C 264.81 156.64 264.74 161.08 264.08 165.44
  Q 262.86 173.44 261.61 180.58
  Q 261.61 180.60 261.62 181.59
  Z
  M 226.33 142.20
  A 1.32 1.32 0.0 0 0 227.77 144.02
  L 236.68 142.48
  A 1.43 1.43 0.0 0 0 237.84 140.83
  L 236.59 133.61
  A 1.79 1.34 36.8 0 0 236.49 133.27
  Q 235.14 130.09 232.36 132.87
  Q 228.79 136.44 226.33 142.20
  Z"
/>
<path fill="#FDFCFB" d="
  M 689.69 141.44
  L 674.80 138.57
  A 5.18 5.18 0.0 0 1 670.73 132.35
  L 670.79 132.04
  A 4.36 4.36 0.0 0 1 676.59 129.13
  Q 684.08 132.07 690.91 132.21
  C 693.09 132.25 695.34 133.24 697.70 133.12
  C 699.71 133.01 702.71 130.48 704.80 128.79
  A 2.32 2.14 50.6 0 1 707.89 129.22
  C 709.75 131.44 707.20 136.30 705.65 140.76
  Q 704.41 144.35 705.70 150.27
  C 706.50 153.93 709.48 156.36 711.49 159.71
  Q 716.58 168.17 723.87 174.62
  Q 725.08 175.69 729.82 177.72
  C 738.69 181.52 744.45 177.26 751.21 171.25
  C 757.33 165.80 760.31 160.64 763.41 151.72
  C 766.38 143.17 768.05 139.26 769.11 132.45
  C 769.73 128.49 768.71 124.61 765.22 121.65
  Q 760.68 117.80 755.79 117.45
  A 1.53 1.53 0.0 0 1 754.89 117.09
  Q 751.70 114.43 753.63 110.69
  Q 756.09 105.93 760.73 102.91
  A 1.97 1.89 27.8 0 1 761.82 102.60
  Q 767.16 102.72 769.68 104.58
  C 774.18 107.92 780.11 112.60 780.76 118.33
  Q 781.65 126.24 779.64 132.67
  C 776.29 143.41 773.38 153.00 768.89 162.14
  Q 767.08 165.83 764.23 169.68
  Q 756.72 179.78 746.16 186.92
  Q 740.59 190.69 735.49 191.40
  C 722.65 193.20 711.90 185.88 705.04 175.56
  Q 696.83 163.21 695.72 161.71
  A 0.77 0.76 -48.3 0 0 694.44 161.79
  L 687.97 172.99
  A 4.54 4.49 87.9 0 1 686.62 174.46
  L 683.02 176.94
  A 3.60 3.44 -87.3 0 0 682.17 177.75
  Q 677.76 183.58 669.77 181.75
  A 1.67 1.66 -82.0 0 1 668.48 180.03
  Q 668.69 176.36 670.48 173.48
  Q 672.68 169.93 675.68 164.41
  Q 680.27 155.98 687.81 146.08
  Q 689.75 143.52 690.21 142.43
  A 0.73 0.72 -73.1 0 0 689.69 141.44
  Z"
/>
<path fill="#FDFCFB" d="
  M 598.31 148.89
  A 0.70 0.70 0.0 0 0 597.77 147.79
  Q 592.95 147.59 587.97 149.37
  A 4.61 4.59 35.3 0 1 586.36 149.64
  Q 582.30 149.59 574.52 151.15
  Q 569.41 152.16 556.77 152.65
  Q 547.02 153.03 541.25 153.53
  C 532.96 154.26 526.80 155.00 520.52 154.88
  A 1.34 1.34 0.0 0 0 519.25 155.71
  Q 511.56 174.49 506.53 187.75
  C 505.55 190.35 502.52 194.40 499.45 192.26
  A 2.04 1.99 -87.7 0 1 498.79 191.53
  Q 496.79 187.89 499.09 182.60
  C 506.40 165.78 509.35 159.33 513.55 147.53
  Q 515.71 141.47 520.44 133.91
  Q 520.78 133.37 521.40 131.11
  A 2.13 2.08 44.3 0 0 521.37 129.89
  Q 520.16 126.13 521.26 121.25
  A 1.61 1.58 71.0 0 1 521.56 120.62
  L 523.36 118.40
  A 1.80 1.79 -45.1 0 1 526.14 118.39
  L 528.32 121.02
  A 1.71 1.70 -29.7 0 0 530.20 121.53
  Q 536.58 119.29 538.62 118.41
  C 545.88 115.30 553.80 113.39 561.51 112.58
  C 568.71 111.81 571.76 111.29 579.06 110.32
  Q 584.09 109.66 587.47 109.59
  Q 602.08 109.28 615.94 112.03
  C 617.23 112.29 619.35 113.16 620.31 114.06
  A 2.14 2.12 28.6 0 1 620.97 116.28
  L 619.48 121.37
  A 1.14 1.14 0.0 0 1 618.92 122.07
  Q 617.28 122.96 615.77 122.73
  Q 608.06 121.58 596.25 120.82
  Q 593.78 120.66 586.71 121.58
  C 578.36 122.68 566.70 120.79 557.77 122.30
  C 548.67 123.84 539.64 126.48 531.91 131.17
  A 1.58 1.51 -89.2 0 0 531.38 131.71
  L 528.68 136.47
  A 3.77 3.53 81.8 0 1 528.29 137.03
  Q 525.42 140.40 524.07 143.98
  A 0.99 0.99 0.0 0 0 525.06 145.31
  C 530.80 144.95 535.01 145.03 539.63 144.35
  C 548.47 143.06 555.90 142.83 567.18 141.57
  C 574.85 140.71 581.04 139.35 590.00 138.03
  Q 599.03 136.70 613.16 134.12
  A 2.43 2.43 0.0 0 1 615.93 135.81
  C 617.36 140.49 615.89 143.40 612.51 147.23
  Q 609.26 150.91 607.33 153.58
  C 603.05 159.48 593.24 162.73 591.14 168.24
  A 1.24 1.23 -60.1 0 0 591.51 169.63
  C 596.39 173.59 603.49 172.53 608.93 170.39
  C 616.26 167.52 621.31 166.07 626.05 161.61
  C 630.22 157.69 630.69 148.94 629.77 144.00
  Q 628.77 138.66 627.86 134.01
  Q 627.10 130.12 627.03 127.93
  C 626.93 125.16 626.36 122.59 626.87 119.78
  Q 628.13 112.78 634.10 108.44
  A 1.29 1.28 -23.3 0 1 636.12 109.24
  L 636.82 112.96
  A 2.01 1.63 48.5 0 1 636.84 113.43
  Q 636.29 120.59 636.97 123.77
  Q 638.87 132.56 639.42 141.00
  C 640.32 154.98 637.25 167.00 625.09 175.08
  Q 618.37 179.56 609.30 182.79
  Q 600.62 185.87 592.10 184.58
  C 589.17 184.13 584.89 182.69 583.27 180.01
  Q 579.40 173.61 582.40 166.31
  C 584.72 160.68 589.27 154.53 594.80 151.52
  Q 597.51 150.04 598.31 148.89
  Z"
/>
<path fill="#FDFCFB" d="
  M 326.08 172.35
  A 1.69 1.68 48.0 0 0 325.97 174.53
  C 329.87 179.70 335.59 182.12 342.00 182.12
  C 344.95 182.12 348.13 182.65 351.63 182.36
  Q 360.81 181.59 368.53 177.66
  C 371.78 176.01 374.59 175.04 377.86 173.89
  A 1.58 1.57 -24.0 0 1 379.76 174.61
  Q 380.64 176.20 380.32 178.25
  Q 379.45 183.76 375.10 187.19
  A 4.09 3.87 12.9 0 1 374.18 187.73
  Q 366.83 190.83 365.45 191.53
  C 358.99 194.81 351.11 195.75 345.23 195.57
  Q 344.34 195.54 333.15 194.48
  A 4.40 4.37 57.3 0 1 332.06 194.24
  Q 323.19 191.07 317.23 183.07
  Q 316.89 182.61 316.53 182.45
  A 1.99 1.99 0.0 0 0 314.00 183.43
  L 310.84 190.04
  A 1.89 1.54 84.2 0 1 310.57 190.45
  Q 308.40 192.82 306.15 196.08
  Q 305.59 196.90 303.95 197.62
  C 302.65 198.19 301.12 199.21 299.91 198.09
  C 297.14 195.55 297.82 193.31 299.68 190.15
  C 301.58 186.90 304.40 182.03 305.95 177.65
  Q 307.90 172.09 310.63 167.33
  C 311.48 165.83 312.28 163.09 312.48 161.76
  C 313.72 153.37 315.21 148.67 318.32 137.61
  C 318.95 135.34 320.59 133.47 319.57 131.18
  Q 317.56 126.70 320.03 122.55
  Q 321.06 120.82 323.31 121.00
  A 1.66 1.63 -21.6 0 1 324.30 121.42
  C 326.18 123.14 327.98 124.68 330.78 124.31
  Q 341.86 122.85 350.38 120.13
  Q 359.27 117.30 362.59 116.74
  Q 368.59 115.73 375.33 116.42
  Q 378.07 116.70 382.56 118.56
  Q 385.83 119.92 385.84 122.73
  C 385.84 124.32 384.91 125.79 384.61 127.39
  C 384.08 130.22 381.66 131.61 378.94 130.52
  C 375.40 129.09 373.90 128.09 370.24 128.09
  Q 361.56 128.10 357.76 129.25
  Q 349.25 131.83 344.16 133.34
  C 339.85 134.61 336.47 134.62 332.52 135.00
  Q 330.95 135.15 329.12 135.96
  C 327.06 136.87 326.23 139.53 327.43 141.16
  Q 327.81 141.69 329.92 142.29
  Q 337.70 144.52 345.75 147.75
  Q 349.99 149.45 349.40 153.68
  C 348.99 156.59 345.82 159.41 343.44 161.51
  Q 337.69 166.60 330.33 169.59
  Q 327.66 170.68 326.08 172.35
  Z
  M 333.33 154.65
  L 325.28 153.10
  A 0.85 0.85 0.0 0 0 324.29 153.77
  L 322.83 161.32
  A 0.80 0.79 77.6 0 0 324.07 162.12
  L 326.00 160.75
  A 5.02 4.42 -71.8 0 1 326.73 160.32
  L 333.64 156.96
  A 1.23 1.23 0.0 0 0 333.33 154.65
  Z"
/>
<path fill="#FDFCFB" d="
  M 845.07 169.01
  Q 844.97 169.62 845.12 170.29
  C 844.72 173.12 841.54 175.12 839.22 176.07
  Q 834.32 178.07 830.06 174.56
  Q 829.03 173.72 828.98 171.72
  C 828.90 168.40 831.03 162.85 835.05 162.24
  C 840.32 161.43 844.62 162.83 845.07 169.01
  Z"
/>
<path fill="#FDFCFB" d="
  M 845.12 170.29
  Q 844.97 169.62 845.07 169.01
  Q 845.23 169.52 845.12 170.29
  Z"
/>
<path fill="#FDFCFB" d="
  M 895.73 184.96
  Q 894.98 184.76 894.30 185.10
  A 8.00 6.45 -29.4 0 1 895.73 184.96
  Z"
/>
<path fill="#FDFCFB" d="
  M 894.30 185.10
  Q 894.98 184.76 895.73 184.96
  A 8.10 7.03 -16.9 0 1 901.77 187.48
  A 8.07 7.00 -17.7 0 1 902.74 194.06
  A 8.10 7.02 -16.8 0 1 898.58 198.28
  A 8.12 7.05 -14.6 0 1 894.51 199.16
  A 8.09 7.02 -16.8 0 1 888.20 195.84
  A 8.07 7.01 -16.7 0 1 889.28 187.81
  A 8.04 6.98 -16.6 0 1 894.30 185.10
  Z"
/>
</svg>
